%TF.GenerationSoftware,KiCad,Pcbnew,(5.1.4)-1*%
%TF.CreationDate,2021-09-18T23:44:11+01:00*%
%TF.ProjectId,DC_DC Converter circuit_2,44435f44-4320-4436-9f6e-766572746572,rev?*%
%TF.SameCoordinates,Original*%
%TF.FileFunction,Copper,L2,Bot*%
%TF.FilePolarity,Positive*%
%FSLAX46Y46*%
G04 Gerber Fmt 4.6, Leading zero omitted, Abs format (unit mm)*
G04 Created by KiCad (PCBNEW (5.1.4)-1) date 2021-09-18 23:44:11*
%MOMM*%
%LPD*%
G04 APERTURE LIST*
%ADD10C,0.100000*%
%TA.AperFunction,ComponentPad*%
%ADD11O,1.600000X1.600000*%
%TD*%
%TA.AperFunction,ComponentPad*%
%ADD12C,1.600000*%
%TD*%
%TA.AperFunction,ComponentPad*%
%ADD13C,2.600000*%
%TD*%
%TA.AperFunction,ComponentPad*%
%ADD14R,2.600000X2.600000*%
%TD*%
%TA.AperFunction,ComponentPad*%
%ADD15C,2.000000*%
%TD*%
%TA.AperFunction,ComponentPad*%
%ADD16R,2.000000X2.000000*%
%TD*%
%TA.AperFunction,ComponentPad*%
%ADD17C,2.400000*%
%TD*%
%TA.AperFunction,ComponentPad*%
%ADD18R,2.400000X2.400000*%
%TD*%
%TA.AperFunction,ComponentPad*%
%ADD19C,0.900000*%
%TD*%
%TA.AperFunction,ComponentPad*%
%ADD20C,10.600000*%
%TD*%
%TA.AperFunction,ComponentPad*%
%ADD21O,1.700000X1.700000*%
%TD*%
%TA.AperFunction,ComponentPad*%
%ADD22R,1.700000X1.700000*%
%TD*%
%TA.AperFunction,ComponentPad*%
%ADD23C,3.000000*%
%TD*%
%TA.AperFunction,ComponentPad*%
%ADD24C,1.440000*%
%TD*%
%TA.AperFunction,ComponentPad*%
%ADD25O,6.000000X3.250000*%
%TD*%
G04 APERTURE END LIST*
D10*
G36*
X206750000Y-120250000D02*
G01*
X188625000Y-120250000D01*
X186875000Y-121750000D01*
X182300000Y-121700000D01*
X181500000Y-122250000D01*
X171250000Y-122250000D01*
X171250000Y-118500000D01*
X183750000Y-110250000D01*
X191500000Y-104750000D01*
X196500000Y-104750000D01*
X206750000Y-120250000D01*
G37*
X206750000Y-120250000D02*
X188625000Y-120250000D01*
X186875000Y-121750000D01*
X182300000Y-121700000D01*
X181500000Y-122250000D01*
X171250000Y-122250000D01*
X171250000Y-118500000D01*
X183750000Y-110250000D01*
X191500000Y-104750000D01*
X196500000Y-104750000D01*
X206750000Y-120250000D01*
G36*
X205500000Y-126000000D02*
G01*
X197000000Y-126000000D01*
X197000000Y-124250000D01*
X192750000Y-124250000D01*
X185600000Y-132900000D01*
X174100000Y-132850000D01*
X174100000Y-134500000D01*
X168000000Y-138750000D01*
X162000000Y-138750000D01*
X162000000Y-131500000D01*
X171250000Y-122750000D01*
X182750000Y-122750000D01*
X183500000Y-122250000D01*
X187250000Y-122250000D01*
X189125000Y-120750000D01*
X205500000Y-120750000D01*
X205500000Y-126000000D01*
G37*
X205500000Y-126000000D02*
X197000000Y-126000000D01*
X197000000Y-124250000D01*
X192750000Y-124250000D01*
X185600000Y-132900000D01*
X174100000Y-132850000D01*
X174100000Y-134500000D01*
X168000000Y-138750000D01*
X162000000Y-138750000D01*
X162000000Y-131500000D01*
X171250000Y-122750000D01*
X182750000Y-122750000D01*
X183500000Y-122250000D01*
X187250000Y-122250000D01*
X189125000Y-120750000D01*
X205500000Y-120750000D01*
X205500000Y-126000000D01*
G36*
X196500000Y-138700000D02*
G01*
X182118000Y-138684000D01*
X193294000Y-124714000D01*
X196500000Y-124700000D01*
X196500000Y-138700000D01*
G37*
X196500000Y-138700000D02*
X182118000Y-138684000D01*
X193294000Y-124714000D01*
X196500000Y-124700000D01*
X196500000Y-138700000D01*
D11*
%TO.P,R1,2*%
%TO.N,Net-(R1-Pad2)*%
X145840000Y-112000000D03*
D12*
%TO.P,R1,1*%
%TO.N,VDD*%
X156000000Y-112000000D03*
%TD*%
D11*
%TO.P,R2,2*%
%TO.N,VSS*%
X167160000Y-107000000D03*
D12*
%TO.P,R2,1*%
%TO.N,Net-(R2-Pad1)*%
X157000000Y-107000000D03*
%TD*%
D13*
%TO.P,J1,2*%
%TO.N,VSS*%
X204000000Y-118920000D03*
D14*
%TO.P,J1,1*%
%TO.N,VDD*%
X204000000Y-124000000D03*
%TD*%
D15*
%TO.P,C4,2*%
%TO.N,HV-*%
X100410000Y-107696000D03*
D16*
%TO.P,C4,1*%
%TO.N,HV+*%
X105410000Y-107696000D03*
%TD*%
D17*
%TO.P,C5,2*%
%TO.N,HV-*%
X103124000Y-119754000D03*
D18*
%TO.P,C5,1*%
%TO.N,HV+*%
X103124000Y-127254000D03*
%TD*%
D13*
%TO.P,J3,2*%
%TO.N,HV-*%
X84000000Y-119420000D03*
D14*
%TO.P,J3,1*%
%TO.N,HV+*%
X84000000Y-124500000D03*
%TD*%
D12*
%TO.P,J4,4*%
%TO.N,VSS*%
X193950000Y-118130000D03*
%TO.P,J4,3*%
X193950000Y-114320000D03*
%TO.P,J4,2*%
X193950000Y-110510000D03*
%TO.P,J4,1*%
X193950000Y-106700000D03*
%TD*%
%TO.P,J6,1*%
%TO.N,Net-(F1-Pad1)*%
X92550000Y-129600000D03*
%TD*%
%TO.P,J7,2*%
%TO.N,HV-*%
X92550000Y-114310000D03*
%TO.P,J7,1*%
%TO.N,Net-(J7-Pad1)*%
X92550000Y-110500000D03*
%TD*%
%TO.P,J5,4*%
%TO.N,Net-(F2-Pad1)*%
X194000000Y-137200000D03*
%TO.P,J5,3*%
X194000000Y-133390000D03*
%TO.P,J5,2*%
X194000000Y-129580000D03*
%TO.P,J5,1*%
X194000000Y-125770000D03*
%TD*%
D19*
%TO.P,H1,1*%
%TO.N,Net-(H1-Pad1)*%
X199435749Y-93689251D03*
X196625000Y-92525000D03*
X193814251Y-93689251D03*
X192650000Y-96500000D03*
X193814251Y-99310749D03*
X196625000Y-100475000D03*
X199435749Y-99310749D03*
X200600000Y-96500000D03*
D20*
X196625000Y-96500000D03*
%TD*%
D19*
%TO.P,H3,1*%
%TO.N,Net-(H3-Pad1)*%
X92810749Y-93689251D03*
X90000000Y-92525000D03*
X87189251Y-93689251D03*
X86025000Y-96500000D03*
X87189251Y-99310749D03*
X90000000Y-100475000D03*
X92810749Y-99310749D03*
X93975000Y-96500000D03*
D20*
X90000000Y-96500000D03*
%TD*%
D21*
%TO.P,J2,10*%
%TO.N,Net-(J2-Pad10)*%
X159545000Y-96860000D03*
%TO.P,J2,9*%
%TO.N,Net-(J2-Pad9)*%
X159545000Y-99400000D03*
%TO.P,J2,8*%
%TO.N,Net-(J2-Pad8)*%
X157005000Y-96860000D03*
%TO.P,J2,7*%
%TO.N,Net-(J2-Pad7)*%
X157005000Y-99400000D03*
%TO.P,J2,6*%
%TO.N,Net-(J2-Pad6)*%
X154465000Y-96860000D03*
%TO.P,J2,5*%
%TO.N,Sense-*%
X154465000Y-99400000D03*
%TO.P,J2,4*%
%TO.N,Net-(J2-Pad4)*%
X151925000Y-96860000D03*
%TO.P,J2,3*%
%TO.N,Sense+*%
X151925000Y-99400000D03*
%TO.P,J2,2*%
%TO.N,Net-(J2-Pad2)*%
X149385000Y-96860000D03*
D22*
%TO.P,J2,1*%
%TO.N,TR*%
X149385000Y-99400000D03*
%TD*%
D19*
%TO.P,H4,1*%
%TO.N,Net-(H4-Pad1)*%
X92810749Y-144489251D03*
X90000000Y-143325000D03*
X87189251Y-144489251D03*
X86025000Y-147300000D03*
X87189251Y-150110749D03*
X90000000Y-151275000D03*
X92810749Y-150110749D03*
X93975000Y-147300000D03*
D20*
X90000000Y-147300000D03*
%TD*%
D19*
%TO.P,H2,1*%
%TO.N,Net-(H2-Pad1)*%
X199435749Y-144489251D03*
X196625000Y-143325000D03*
X193814251Y-144489251D03*
X192650000Y-147300000D03*
X193814251Y-150110749D03*
X196625000Y-151275000D03*
X199435749Y-150110749D03*
X200600000Y-147300000D03*
D20*
X196625000Y-147300000D03*
%TD*%
D23*
%TO.P,F2,2*%
%TO.N,VDD*%
X164925000Y-135475000D03*
%TO.P,F2,1*%
%TO.N,Net-(F2-Pad1)*%
X187425000Y-135475000D03*
%TD*%
D24*
%TO.P,RV1,3*%
%TO.N,Net-(R1-Pad2)*%
X147370000Y-106750000D03*
%TO.P,RV1,2*%
%TO.N,TR*%
X149910000Y-106750000D03*
%TO.P,RV1,1*%
%TO.N,Net-(R2-Pad1)*%
X152450000Y-106750000D03*
%TD*%
D25*
%TO.P,F1,1*%
%TO.N,Net-(F1-Pad1)*%
X121412000Y-139700000D03*
%TO.P,F1,2*%
%TO.N,HV+*%
X121412000Y-102200000D03*
%TD*%
D16*
%TO.P,C3,1*%
%TO.N,VDD*%
X186200000Y-124200000D03*
D15*
%TO.P,C3,2*%
%TO.N,VSS*%
X186200000Y-119200000D03*
%TD*%
M02*
