%TF.GenerationSoftware,KiCad,Pcbnew,(5.1.4)-1*%
%TF.CreationDate,2021-09-18T23:44:11+01:00*%
%TF.ProjectId,DC_DC Converter circuit_2,44435f44-4320-4436-9f6e-766572746572,rev?*%
%TF.SameCoordinates,Original*%
%TF.FileFunction,Paste,Top*%
%TF.FilePolarity,Positive*%
%FSLAX46Y46*%
G04 Gerber Fmt 4.6, Leading zero omitted, Abs format (unit mm)*
G04 Created by KiCad (PCBNEW (5.1.4)-1) date 2021-09-18 23:44:11*
%MOMM*%
%LPD*%
G04 APERTURE LIST*
%ADD10C,0.100000*%
%ADD11C,0.975000*%
%ADD12C,1.325000*%
G04 APERTURE END LIST*
D10*
%TO.C,R3*%
G36*
X165705142Y-103301174D02*
G01*
X165728803Y-103304684D01*
X165752007Y-103310496D01*
X165774529Y-103318554D01*
X165796153Y-103328782D01*
X165816670Y-103341079D01*
X165835883Y-103355329D01*
X165853607Y-103371393D01*
X165869671Y-103389117D01*
X165883921Y-103408330D01*
X165896218Y-103428847D01*
X165906446Y-103450471D01*
X165914504Y-103472993D01*
X165920316Y-103496197D01*
X165923826Y-103519858D01*
X165925000Y-103543750D01*
X165925000Y-104456250D01*
X165923826Y-104480142D01*
X165920316Y-104503803D01*
X165914504Y-104527007D01*
X165906446Y-104549529D01*
X165896218Y-104571153D01*
X165883921Y-104591670D01*
X165869671Y-104610883D01*
X165853607Y-104628607D01*
X165835883Y-104644671D01*
X165816670Y-104658921D01*
X165796153Y-104671218D01*
X165774529Y-104681446D01*
X165752007Y-104689504D01*
X165728803Y-104695316D01*
X165705142Y-104698826D01*
X165681250Y-104700000D01*
X165193750Y-104700000D01*
X165169858Y-104698826D01*
X165146197Y-104695316D01*
X165122993Y-104689504D01*
X165100471Y-104681446D01*
X165078847Y-104671218D01*
X165058330Y-104658921D01*
X165039117Y-104644671D01*
X165021393Y-104628607D01*
X165005329Y-104610883D01*
X164991079Y-104591670D01*
X164978782Y-104571153D01*
X164968554Y-104549529D01*
X164960496Y-104527007D01*
X164954684Y-104503803D01*
X164951174Y-104480142D01*
X164950000Y-104456250D01*
X164950000Y-103543750D01*
X164951174Y-103519858D01*
X164954684Y-103496197D01*
X164960496Y-103472993D01*
X164968554Y-103450471D01*
X164978782Y-103428847D01*
X164991079Y-103408330D01*
X165005329Y-103389117D01*
X165021393Y-103371393D01*
X165039117Y-103355329D01*
X165058330Y-103341079D01*
X165078847Y-103328782D01*
X165100471Y-103318554D01*
X165122993Y-103310496D01*
X165146197Y-103304684D01*
X165169858Y-103301174D01*
X165193750Y-103300000D01*
X165681250Y-103300000D01*
X165705142Y-103301174D01*
X165705142Y-103301174D01*
G37*
D11*
X165437500Y-104000000D03*
D10*
G36*
X163830142Y-103301174D02*
G01*
X163853803Y-103304684D01*
X163877007Y-103310496D01*
X163899529Y-103318554D01*
X163921153Y-103328782D01*
X163941670Y-103341079D01*
X163960883Y-103355329D01*
X163978607Y-103371393D01*
X163994671Y-103389117D01*
X164008921Y-103408330D01*
X164021218Y-103428847D01*
X164031446Y-103450471D01*
X164039504Y-103472993D01*
X164045316Y-103496197D01*
X164048826Y-103519858D01*
X164050000Y-103543750D01*
X164050000Y-104456250D01*
X164048826Y-104480142D01*
X164045316Y-104503803D01*
X164039504Y-104527007D01*
X164031446Y-104549529D01*
X164021218Y-104571153D01*
X164008921Y-104591670D01*
X163994671Y-104610883D01*
X163978607Y-104628607D01*
X163960883Y-104644671D01*
X163941670Y-104658921D01*
X163921153Y-104671218D01*
X163899529Y-104681446D01*
X163877007Y-104689504D01*
X163853803Y-104695316D01*
X163830142Y-104698826D01*
X163806250Y-104700000D01*
X163318750Y-104700000D01*
X163294858Y-104698826D01*
X163271197Y-104695316D01*
X163247993Y-104689504D01*
X163225471Y-104681446D01*
X163203847Y-104671218D01*
X163183330Y-104658921D01*
X163164117Y-104644671D01*
X163146393Y-104628607D01*
X163130329Y-104610883D01*
X163116079Y-104591670D01*
X163103782Y-104571153D01*
X163093554Y-104549529D01*
X163085496Y-104527007D01*
X163079684Y-104503803D01*
X163076174Y-104480142D01*
X163075000Y-104456250D01*
X163075000Y-103543750D01*
X163076174Y-103519858D01*
X163079684Y-103496197D01*
X163085496Y-103472993D01*
X163093554Y-103450471D01*
X163103782Y-103428847D01*
X163116079Y-103408330D01*
X163130329Y-103389117D01*
X163146393Y-103371393D01*
X163164117Y-103355329D01*
X163183330Y-103341079D01*
X163203847Y-103328782D01*
X163225471Y-103318554D01*
X163247993Y-103310496D01*
X163271197Y-103304684D01*
X163294858Y-103301174D01*
X163318750Y-103300000D01*
X163806250Y-103300000D01*
X163830142Y-103301174D01*
X163830142Y-103301174D01*
G37*
D11*
X163562500Y-104000000D03*
%TD*%
D10*
%TO.C,R4*%
G36*
X163830142Y-100801174D02*
G01*
X163853803Y-100804684D01*
X163877007Y-100810496D01*
X163899529Y-100818554D01*
X163921153Y-100828782D01*
X163941670Y-100841079D01*
X163960883Y-100855329D01*
X163978607Y-100871393D01*
X163994671Y-100889117D01*
X164008921Y-100908330D01*
X164021218Y-100928847D01*
X164031446Y-100950471D01*
X164039504Y-100972993D01*
X164045316Y-100996197D01*
X164048826Y-101019858D01*
X164050000Y-101043750D01*
X164050000Y-101956250D01*
X164048826Y-101980142D01*
X164045316Y-102003803D01*
X164039504Y-102027007D01*
X164031446Y-102049529D01*
X164021218Y-102071153D01*
X164008921Y-102091670D01*
X163994671Y-102110883D01*
X163978607Y-102128607D01*
X163960883Y-102144671D01*
X163941670Y-102158921D01*
X163921153Y-102171218D01*
X163899529Y-102181446D01*
X163877007Y-102189504D01*
X163853803Y-102195316D01*
X163830142Y-102198826D01*
X163806250Y-102200000D01*
X163318750Y-102200000D01*
X163294858Y-102198826D01*
X163271197Y-102195316D01*
X163247993Y-102189504D01*
X163225471Y-102181446D01*
X163203847Y-102171218D01*
X163183330Y-102158921D01*
X163164117Y-102144671D01*
X163146393Y-102128607D01*
X163130329Y-102110883D01*
X163116079Y-102091670D01*
X163103782Y-102071153D01*
X163093554Y-102049529D01*
X163085496Y-102027007D01*
X163079684Y-102003803D01*
X163076174Y-101980142D01*
X163075000Y-101956250D01*
X163075000Y-101043750D01*
X163076174Y-101019858D01*
X163079684Y-100996197D01*
X163085496Y-100972993D01*
X163093554Y-100950471D01*
X163103782Y-100928847D01*
X163116079Y-100908330D01*
X163130329Y-100889117D01*
X163146393Y-100871393D01*
X163164117Y-100855329D01*
X163183330Y-100841079D01*
X163203847Y-100828782D01*
X163225471Y-100818554D01*
X163247993Y-100810496D01*
X163271197Y-100804684D01*
X163294858Y-100801174D01*
X163318750Y-100800000D01*
X163806250Y-100800000D01*
X163830142Y-100801174D01*
X163830142Y-100801174D01*
G37*
D11*
X163562500Y-101500000D03*
D10*
G36*
X165705142Y-100801174D02*
G01*
X165728803Y-100804684D01*
X165752007Y-100810496D01*
X165774529Y-100818554D01*
X165796153Y-100828782D01*
X165816670Y-100841079D01*
X165835883Y-100855329D01*
X165853607Y-100871393D01*
X165869671Y-100889117D01*
X165883921Y-100908330D01*
X165896218Y-100928847D01*
X165906446Y-100950471D01*
X165914504Y-100972993D01*
X165920316Y-100996197D01*
X165923826Y-101019858D01*
X165925000Y-101043750D01*
X165925000Y-101956250D01*
X165923826Y-101980142D01*
X165920316Y-102003803D01*
X165914504Y-102027007D01*
X165906446Y-102049529D01*
X165896218Y-102071153D01*
X165883921Y-102091670D01*
X165869671Y-102110883D01*
X165853607Y-102128607D01*
X165835883Y-102144671D01*
X165816670Y-102158921D01*
X165796153Y-102171218D01*
X165774529Y-102181446D01*
X165752007Y-102189504D01*
X165728803Y-102195316D01*
X165705142Y-102198826D01*
X165681250Y-102200000D01*
X165193750Y-102200000D01*
X165169858Y-102198826D01*
X165146197Y-102195316D01*
X165122993Y-102189504D01*
X165100471Y-102181446D01*
X165078847Y-102171218D01*
X165058330Y-102158921D01*
X165039117Y-102144671D01*
X165021393Y-102128607D01*
X165005329Y-102110883D01*
X164991079Y-102091670D01*
X164978782Y-102071153D01*
X164968554Y-102049529D01*
X164960496Y-102027007D01*
X164954684Y-102003803D01*
X164951174Y-101980142D01*
X164950000Y-101956250D01*
X164950000Y-101043750D01*
X164951174Y-101019858D01*
X164954684Y-100996197D01*
X164960496Y-100972993D01*
X164968554Y-100950471D01*
X164978782Y-100928847D01*
X164991079Y-100908330D01*
X165005329Y-100889117D01*
X165021393Y-100871393D01*
X165039117Y-100855329D01*
X165058330Y-100841079D01*
X165078847Y-100828782D01*
X165100471Y-100818554D01*
X165122993Y-100810496D01*
X165146197Y-100804684D01*
X165169858Y-100801174D01*
X165193750Y-100800000D01*
X165681250Y-100800000D01*
X165705142Y-100801174D01*
X165705142Y-100801174D01*
G37*
D11*
X165437500Y-101500000D03*
%TD*%
D10*
%TO.C,C1*%
G36*
X174124505Y-120276204D02*
G01*
X174148773Y-120279804D01*
X174172572Y-120285765D01*
X174195671Y-120294030D01*
X174217850Y-120304520D01*
X174238893Y-120317132D01*
X174258599Y-120331747D01*
X174276777Y-120348223D01*
X174293253Y-120366401D01*
X174307868Y-120386107D01*
X174320480Y-120407150D01*
X174330970Y-120429329D01*
X174339235Y-120452428D01*
X174345196Y-120476227D01*
X174348796Y-120500495D01*
X174350000Y-120524999D01*
X174350000Y-121350001D01*
X174348796Y-121374505D01*
X174345196Y-121398773D01*
X174339235Y-121422572D01*
X174330970Y-121445671D01*
X174320480Y-121467850D01*
X174307868Y-121488893D01*
X174293253Y-121508599D01*
X174276777Y-121526777D01*
X174258599Y-121543253D01*
X174238893Y-121557868D01*
X174217850Y-121570480D01*
X174195671Y-121580970D01*
X174172572Y-121589235D01*
X174148773Y-121595196D01*
X174124505Y-121598796D01*
X174100001Y-121600000D01*
X171899999Y-121600000D01*
X171875495Y-121598796D01*
X171851227Y-121595196D01*
X171827428Y-121589235D01*
X171804329Y-121580970D01*
X171782150Y-121570480D01*
X171761107Y-121557868D01*
X171741401Y-121543253D01*
X171723223Y-121526777D01*
X171706747Y-121508599D01*
X171692132Y-121488893D01*
X171679520Y-121467850D01*
X171669030Y-121445671D01*
X171660765Y-121422572D01*
X171654804Y-121398773D01*
X171651204Y-121374505D01*
X171650000Y-121350001D01*
X171650000Y-120524999D01*
X171651204Y-120500495D01*
X171654804Y-120476227D01*
X171660765Y-120452428D01*
X171669030Y-120429329D01*
X171679520Y-120407150D01*
X171692132Y-120386107D01*
X171706747Y-120366401D01*
X171723223Y-120348223D01*
X171741401Y-120331747D01*
X171761107Y-120317132D01*
X171782150Y-120304520D01*
X171804329Y-120294030D01*
X171827428Y-120285765D01*
X171851227Y-120279804D01*
X171875495Y-120276204D01*
X171899999Y-120275000D01*
X174100001Y-120275000D01*
X174124505Y-120276204D01*
X174124505Y-120276204D01*
G37*
D12*
X173000000Y-120937500D03*
D10*
G36*
X174124505Y-123401204D02*
G01*
X174148773Y-123404804D01*
X174172572Y-123410765D01*
X174195671Y-123419030D01*
X174217850Y-123429520D01*
X174238893Y-123442132D01*
X174258599Y-123456747D01*
X174276777Y-123473223D01*
X174293253Y-123491401D01*
X174307868Y-123511107D01*
X174320480Y-123532150D01*
X174330970Y-123554329D01*
X174339235Y-123577428D01*
X174345196Y-123601227D01*
X174348796Y-123625495D01*
X174350000Y-123649999D01*
X174350000Y-124475001D01*
X174348796Y-124499505D01*
X174345196Y-124523773D01*
X174339235Y-124547572D01*
X174330970Y-124570671D01*
X174320480Y-124592850D01*
X174307868Y-124613893D01*
X174293253Y-124633599D01*
X174276777Y-124651777D01*
X174258599Y-124668253D01*
X174238893Y-124682868D01*
X174217850Y-124695480D01*
X174195671Y-124705970D01*
X174172572Y-124714235D01*
X174148773Y-124720196D01*
X174124505Y-124723796D01*
X174100001Y-124725000D01*
X171899999Y-124725000D01*
X171875495Y-124723796D01*
X171851227Y-124720196D01*
X171827428Y-124714235D01*
X171804329Y-124705970D01*
X171782150Y-124695480D01*
X171761107Y-124682868D01*
X171741401Y-124668253D01*
X171723223Y-124651777D01*
X171706747Y-124633599D01*
X171692132Y-124613893D01*
X171679520Y-124592850D01*
X171669030Y-124570671D01*
X171660765Y-124547572D01*
X171654804Y-124523773D01*
X171651204Y-124499505D01*
X171650000Y-124475001D01*
X171650000Y-123649999D01*
X171651204Y-123625495D01*
X171654804Y-123601227D01*
X171660765Y-123577428D01*
X171669030Y-123554329D01*
X171679520Y-123532150D01*
X171692132Y-123511107D01*
X171706747Y-123491401D01*
X171723223Y-123473223D01*
X171741401Y-123456747D01*
X171761107Y-123442132D01*
X171782150Y-123429520D01*
X171804329Y-123419030D01*
X171827428Y-123410765D01*
X171851227Y-123404804D01*
X171875495Y-123401204D01*
X171899999Y-123400000D01*
X174100001Y-123400000D01*
X174124505Y-123401204D01*
X174124505Y-123401204D01*
G37*
D12*
X173000000Y-124062500D03*
%TD*%
D10*
%TO.C,C2*%
G36*
X178624505Y-120276204D02*
G01*
X178648773Y-120279804D01*
X178672572Y-120285765D01*
X178695671Y-120294030D01*
X178717850Y-120304520D01*
X178738893Y-120317132D01*
X178758599Y-120331747D01*
X178776777Y-120348223D01*
X178793253Y-120366401D01*
X178807868Y-120386107D01*
X178820480Y-120407150D01*
X178830970Y-120429329D01*
X178839235Y-120452428D01*
X178845196Y-120476227D01*
X178848796Y-120500495D01*
X178850000Y-120524999D01*
X178850000Y-121350001D01*
X178848796Y-121374505D01*
X178845196Y-121398773D01*
X178839235Y-121422572D01*
X178830970Y-121445671D01*
X178820480Y-121467850D01*
X178807868Y-121488893D01*
X178793253Y-121508599D01*
X178776777Y-121526777D01*
X178758599Y-121543253D01*
X178738893Y-121557868D01*
X178717850Y-121570480D01*
X178695671Y-121580970D01*
X178672572Y-121589235D01*
X178648773Y-121595196D01*
X178624505Y-121598796D01*
X178600001Y-121600000D01*
X176399999Y-121600000D01*
X176375495Y-121598796D01*
X176351227Y-121595196D01*
X176327428Y-121589235D01*
X176304329Y-121580970D01*
X176282150Y-121570480D01*
X176261107Y-121557868D01*
X176241401Y-121543253D01*
X176223223Y-121526777D01*
X176206747Y-121508599D01*
X176192132Y-121488893D01*
X176179520Y-121467850D01*
X176169030Y-121445671D01*
X176160765Y-121422572D01*
X176154804Y-121398773D01*
X176151204Y-121374505D01*
X176150000Y-121350001D01*
X176150000Y-120524999D01*
X176151204Y-120500495D01*
X176154804Y-120476227D01*
X176160765Y-120452428D01*
X176169030Y-120429329D01*
X176179520Y-120407150D01*
X176192132Y-120386107D01*
X176206747Y-120366401D01*
X176223223Y-120348223D01*
X176241401Y-120331747D01*
X176261107Y-120317132D01*
X176282150Y-120304520D01*
X176304329Y-120294030D01*
X176327428Y-120285765D01*
X176351227Y-120279804D01*
X176375495Y-120276204D01*
X176399999Y-120275000D01*
X178600001Y-120275000D01*
X178624505Y-120276204D01*
X178624505Y-120276204D01*
G37*
D12*
X177500000Y-120937500D03*
D10*
G36*
X178624505Y-123401204D02*
G01*
X178648773Y-123404804D01*
X178672572Y-123410765D01*
X178695671Y-123419030D01*
X178717850Y-123429520D01*
X178738893Y-123442132D01*
X178758599Y-123456747D01*
X178776777Y-123473223D01*
X178793253Y-123491401D01*
X178807868Y-123511107D01*
X178820480Y-123532150D01*
X178830970Y-123554329D01*
X178839235Y-123577428D01*
X178845196Y-123601227D01*
X178848796Y-123625495D01*
X178850000Y-123649999D01*
X178850000Y-124475001D01*
X178848796Y-124499505D01*
X178845196Y-124523773D01*
X178839235Y-124547572D01*
X178830970Y-124570671D01*
X178820480Y-124592850D01*
X178807868Y-124613893D01*
X178793253Y-124633599D01*
X178776777Y-124651777D01*
X178758599Y-124668253D01*
X178738893Y-124682868D01*
X178717850Y-124695480D01*
X178695671Y-124705970D01*
X178672572Y-124714235D01*
X178648773Y-124720196D01*
X178624505Y-124723796D01*
X178600001Y-124725000D01*
X176399999Y-124725000D01*
X176375495Y-124723796D01*
X176351227Y-124720196D01*
X176327428Y-124714235D01*
X176304329Y-124705970D01*
X176282150Y-124695480D01*
X176261107Y-124682868D01*
X176241401Y-124668253D01*
X176223223Y-124651777D01*
X176206747Y-124633599D01*
X176192132Y-124613893D01*
X176179520Y-124592850D01*
X176169030Y-124570671D01*
X176160765Y-124547572D01*
X176154804Y-124523773D01*
X176151204Y-124499505D01*
X176150000Y-124475001D01*
X176150000Y-123649999D01*
X176151204Y-123625495D01*
X176154804Y-123601227D01*
X176160765Y-123577428D01*
X176169030Y-123554329D01*
X176179520Y-123532150D01*
X176192132Y-123511107D01*
X176206747Y-123491401D01*
X176223223Y-123473223D01*
X176241401Y-123456747D01*
X176261107Y-123442132D01*
X176282150Y-123429520D01*
X176304329Y-123419030D01*
X176327428Y-123410765D01*
X176351227Y-123404804D01*
X176375495Y-123401204D01*
X176399999Y-123400000D01*
X178600001Y-123400000D01*
X178624505Y-123401204D01*
X178624505Y-123401204D01*
G37*
D12*
X177500000Y-124062500D03*
%TD*%
M02*
