%TF.GenerationSoftware,KiCad,Pcbnew,(5.1.4)-1*%
%TF.CreationDate,2021-09-18T23:44:11+01:00*%
%TF.ProjectId,DC_DC Converter circuit_2,44435f44-4320-4436-9f6e-766572746572,rev?*%
%TF.SameCoordinates,Original*%
%TF.FileFunction,Soldermask,Bot*%
%TF.FilePolarity,Negative*%
%FSLAX46Y46*%
G04 Gerber Fmt 4.6, Leading zero omitted, Abs format (unit mm)*
G04 Created by KiCad (PCBNEW (5.1.4)-1) date 2021-09-18 23:44:11*
%MOMM*%
%LPD*%
G04 APERTURE LIST*
%ADD10O,1.600000X1.600000*%
%ADD11C,1.600000*%
%ADD12C,2.600000*%
%ADD13R,2.600000X2.600000*%
%ADD14C,2.000000*%
%ADD15R,2.000000X2.000000*%
%ADD16C,2.400000*%
%ADD17R,2.400000X2.400000*%
%ADD18C,0.900000*%
%ADD19C,10.600000*%
%ADD20O,1.700000X1.700000*%
%ADD21R,1.700000X1.700000*%
%ADD22C,2.700000*%
%ADD23C,3.000000*%
%ADD24C,1.440000*%
%ADD25O,6.000000X3.250000*%
%ADD26C,3.200000*%
G04 APERTURE END LIST*
D10*
%TO.C,R1*%
X145840000Y-112000000D03*
D11*
X156000000Y-112000000D03*
%TD*%
D10*
%TO.C,R2*%
X167160000Y-107000000D03*
D11*
X157000000Y-107000000D03*
%TD*%
D12*
%TO.C,J1*%
X204000000Y-118920000D03*
D13*
X204000000Y-124000000D03*
%TD*%
D14*
%TO.C,C4*%
X100410000Y-107696000D03*
D15*
X105410000Y-107696000D03*
%TD*%
D16*
%TO.C,C5*%
X103124000Y-119754000D03*
D17*
X103124000Y-127254000D03*
%TD*%
D12*
%TO.C,J3*%
X84000000Y-119420000D03*
D13*
X84000000Y-124500000D03*
%TD*%
D11*
%TO.C,J4*%
X193950000Y-118130000D03*
X193950000Y-114320000D03*
X193950000Y-110510000D03*
X193950000Y-106700000D03*
%TD*%
%TO.C,J6*%
X92550000Y-129600000D03*
%TD*%
%TO.C,J7*%
X92550000Y-114310000D03*
X92550000Y-110500000D03*
%TD*%
%TO.C,J5*%
X194000000Y-137200000D03*
X194000000Y-133390000D03*
X194000000Y-129580000D03*
X194000000Y-125770000D03*
%TD*%
D18*
%TO.C,H1*%
X199435749Y-93689251D03*
X196625000Y-92525000D03*
X193814251Y-93689251D03*
X192650000Y-96500000D03*
X193814251Y-99310749D03*
X196625000Y-100475000D03*
X199435749Y-99310749D03*
X200600000Y-96500000D03*
D19*
X196625000Y-96500000D03*
%TD*%
D18*
%TO.C,H3*%
X92810749Y-93689251D03*
X90000000Y-92525000D03*
X87189251Y-93689251D03*
X86025000Y-96500000D03*
X87189251Y-99310749D03*
X90000000Y-100475000D03*
X92810749Y-99310749D03*
X93975000Y-96500000D03*
D19*
X90000000Y-96500000D03*
%TD*%
D20*
%TO.C,J2*%
X159545000Y-96860000D03*
X159545000Y-99400000D03*
X157005000Y-96860000D03*
X157005000Y-99400000D03*
X154465000Y-96860000D03*
X154465000Y-99400000D03*
X151925000Y-96860000D03*
X151925000Y-99400000D03*
X149385000Y-96860000D03*
D21*
X149385000Y-99400000D03*
%TD*%
D18*
%TO.C,H4*%
X92810749Y-144489251D03*
X90000000Y-143325000D03*
X87189251Y-144489251D03*
X86025000Y-147300000D03*
X87189251Y-150110749D03*
X90000000Y-151275000D03*
X92810749Y-150110749D03*
X93975000Y-147300000D03*
D19*
X90000000Y-147300000D03*
%TD*%
D18*
%TO.C,H2*%
X199435749Y-144489251D03*
X196625000Y-143325000D03*
X193814251Y-144489251D03*
X192650000Y-147300000D03*
X193814251Y-150110749D03*
X196625000Y-151275000D03*
X199435749Y-150110749D03*
X200600000Y-147300000D03*
D19*
X196625000Y-147300000D03*
%TD*%
D22*
%TO.C,F2*%
X176175000Y-135475000D03*
D23*
X164925000Y-135475000D03*
X187425000Y-135475000D03*
%TD*%
D24*
%TO.C,RV1*%
X147370000Y-106750000D03*
X149910000Y-106750000D03*
X152450000Y-106750000D03*
%TD*%
D25*
%TO.C,F1*%
X121412000Y-139700000D03*
X121412000Y-102200000D03*
D26*
X121412000Y-120950000D03*
%TD*%
D15*
%TO.C,C3*%
X186200000Y-124200000D03*
D14*
X186200000Y-119200000D03*
%TD*%
M02*
