M48
; DRILL file {KiCad (5.1.4)-1} date 18/09/2021 23:44:09
; FORMAT={-:-/ absolute / inch / decimal}
; #@! TF.CreationDate,2021-09-18T23:44:09+01:00
; #@! TF.GenerationSoftware,Kicad,Pcbnew,(5.1.4)-1
; #@! TF.FileFunction,Plated,1,2,PTH
FMAT,2
INCH
T1C0.0236
T2C0.0300
T3C0.0315
T4C0.0394
T5C0.0472
T6C0.0512
T7C0.2087
%
G90
G05
T1
X7.5846Y-5.7992
X7.6305Y-5.6886
X7.6305Y-5.9099
X7.7411Y-5.6427
X7.7411Y-5.9557
X7.8518Y-5.6886
X7.8518Y-5.9099
X7.8976Y-5.7992
X7.5846Y-3.7992
X7.6305Y-3.6886
X7.6305Y-3.9099
X7.7411Y-3.6427
X7.7411Y-3.9557
X7.8518Y-3.6886
X7.8518Y-3.9099
X7.8976Y-3.7992
X3.3868Y-5.7992
X3.4326Y-5.6886
X3.4326Y-5.9099
X3.5433Y-5.6427
X3.5433Y-5.9557
X3.654Y-5.6886
X3.654Y-5.9099
X3.6998Y-5.7992
X3.3868Y-3.7992
X3.4326Y-3.6886
X3.4326Y-3.9099
X3.5433Y-3.6427
X3.5433Y-3.9557
X3.654Y-3.6886
X3.654Y-3.9099
X3.6998Y-3.7992
T3
X6.1811Y-4.2126
X6.5811Y-4.2126
X5.7417Y-4.4094
X6.1417Y-4.4094
X5.802Y-4.2028
X5.902Y-4.2028
X6.002Y-4.2028
T4
X7.3307Y-4.6929
X7.3307Y-4.8898
X5.8813Y-3.8134
X5.8813Y-3.9134
X5.9813Y-3.8134
X5.9813Y-3.9134
X6.0813Y-3.8134
X6.0813Y-3.9134
X6.1813Y-3.8134
X6.1813Y-3.9134
X6.2813Y-3.8134
X6.2813Y-3.9134
X3.9531Y-4.24
X4.15Y-4.24
T5
X4.06Y-4.7147
X4.06Y-5.01
T6
X4.78Y-4.0236
X4.78Y-5.5
X6.4931Y-5.3337
X7.3789Y-5.3337
X8.0315Y-4.6819
X8.0315Y-4.8819
X3.3071Y-4.7016
X3.3071Y-4.9016
T7
X7.7411Y-5.7992
X7.7411Y-3.7992
X3.5433Y-5.7992
X3.5433Y-3.7992
T2
G00X3.6437Y-5.0937
M15
G01X3.6437Y-5.111
M16
G05
G00X7.6358Y-4.1922
M15
G01X7.6358Y-4.2094
M16
G05
G00X7.6358Y-4.3422
M15
G01X7.6358Y-4.3594
M16
G05
G00X7.6358Y-4.4922
M15
G01X7.6358Y-4.5094
M16
G05
G00X7.6358Y-4.6422
M15
G01X7.6358Y-4.6594
M16
G05
G00X7.6378Y-4.943
M15
G01X7.6378Y-4.9602
M16
G05
G00X7.6378Y-5.093
M15
G01X7.6378Y-5.1102
M16
G05
G00X7.6378Y-5.243
M15
G01X7.6378Y-5.2602
M16
G05
G00X7.6378Y-5.393
M15
G01X7.6378Y-5.4102
M16
G05
G00X3.6437Y-4.3418
M15
G01X3.6437Y-4.359
M16
G05
G00X3.6437Y-4.4918
M15
G01X3.6437Y-4.509
M16
G05
T0
M30
