%TF.GenerationSoftware,KiCad,Pcbnew,(5.1.9)-1*%
%TF.CreationDate,2021-09-01T20:21:50+01:00*%
%TF.ProjectId,TSAL LED breakout,5453414c-204c-4454-9420-627265616b6f,rev?*%
%TF.SameCoordinates,Original*%
%TF.FileFunction,Legend,Top*%
%TF.FilePolarity,Positive*%
%FSLAX46Y46*%
G04 Gerber Fmt 4.6, Leading zero omitted, Abs format (unit mm)*
G04 Created by KiCad (PCBNEW (5.1.9)-1) date 2021-09-01 20:21:50*
%MOMM*%
%LPD*%
G01*
G04 APERTURE LIST*
%ADD10C,0.175000*%
%ADD11C,0.125000*%
%ADD12C,0.120000*%
%ADD13C,0.050000*%
%ADD14C,0.150000*%
G04 APERTURE END LIST*
D10*
X132433333Y-41650000D02*
X132366666Y-41616666D01*
X132266666Y-41616666D01*
X132166666Y-41650000D01*
X132100000Y-41716666D01*
X132066666Y-41783333D01*
X132033333Y-41916666D01*
X132033333Y-42016666D01*
X132066666Y-42150000D01*
X132100000Y-42216666D01*
X132166666Y-42283333D01*
X132266666Y-42316666D01*
X132333333Y-42316666D01*
X132433333Y-42283333D01*
X132466666Y-42250000D01*
X132466666Y-42016666D01*
X132333333Y-42016666D01*
D11*
X129966666Y-42316666D02*
X129733333Y-41983333D01*
X129566666Y-42316666D02*
X129566666Y-41616666D01*
X129833333Y-41616666D01*
X129900000Y-41650000D01*
X129933333Y-41683333D01*
X129966666Y-41750000D01*
X129966666Y-41850000D01*
X129933333Y-41916666D01*
X129900000Y-41950000D01*
X129833333Y-41983333D01*
X129566666Y-41983333D01*
X126000000Y-42035714D02*
X126380952Y-42035714D01*
X126190476Y-42226190D02*
X126190476Y-41845238D01*
X126571428Y-41726190D02*
X126880952Y-41726190D01*
X126714285Y-41916666D01*
X126785714Y-41916666D01*
X126833333Y-41940476D01*
X126857142Y-41964285D01*
X126880952Y-42011904D01*
X126880952Y-42130952D01*
X126857142Y-42178571D01*
X126833333Y-42202380D01*
X126785714Y-42226190D01*
X126642857Y-42226190D01*
X126595238Y-42202380D01*
X126571428Y-42178571D01*
X127095238Y-42178571D02*
X127119047Y-42202380D01*
X127095238Y-42226190D01*
X127071428Y-42202380D01*
X127095238Y-42178571D01*
X127095238Y-42226190D01*
X127285714Y-41726190D02*
X127595238Y-41726190D01*
X127428571Y-41916666D01*
X127500000Y-41916666D01*
X127547619Y-41940476D01*
X127571428Y-41964285D01*
X127595238Y-42011904D01*
X127595238Y-42130952D01*
X127571428Y-42178571D01*
X127547619Y-42202380D01*
X127500000Y-42226190D01*
X127357142Y-42226190D01*
X127309523Y-42202380D01*
X127285714Y-42178571D01*
X127738095Y-41726190D02*
X127904761Y-42226190D01*
X128071428Y-41726190D01*
D12*
%TO.C,R2*%
X126040000Y-64360000D02*
X126040000Y-64030000D01*
X126040000Y-64030000D02*
X132580000Y-64030000D01*
X132580000Y-64030000D02*
X132580000Y-64360000D01*
X126040000Y-66440000D02*
X126040000Y-66770000D01*
X126040000Y-66770000D02*
X132580000Y-66770000D01*
X132580000Y-66770000D02*
X132580000Y-66440000D01*
D13*
%TO.C,D5*%
X122400000Y-52200000D02*
X122700000Y-52200000D01*
X122550000Y-52425000D02*
X122550000Y-52000000D01*
X125325000Y-51925000D02*
X125325000Y-52525000D01*
X122775000Y-51925000D02*
X125325000Y-51925000D01*
X122775000Y-52525000D02*
X122775000Y-51925000D01*
X125325000Y-54000000D02*
X125325000Y-53450000D01*
X122775000Y-54000000D02*
X125325000Y-54000000D01*
X122775000Y-53450000D02*
X122775000Y-54000000D01*
%TO.C,D6*%
X133400200Y-58864200D02*
X133700200Y-58864200D01*
X133550200Y-59089200D02*
X133550200Y-58664200D01*
X136325200Y-58589200D02*
X136325200Y-59189200D01*
X133775200Y-58589200D02*
X136325200Y-58589200D01*
X133775200Y-59189200D02*
X133775200Y-58589200D01*
X136325200Y-60664200D02*
X136325200Y-60114200D01*
X133775200Y-60664200D02*
X136325200Y-60664200D01*
X133775200Y-60114200D02*
X133775200Y-60664200D01*
%TO.C,D2*%
X133425600Y-52209800D02*
X133725600Y-52209800D01*
X133575600Y-52434800D02*
X133575600Y-52009800D01*
X136350600Y-51934800D02*
X136350600Y-52534800D01*
X133800600Y-51934800D02*
X136350600Y-51934800D01*
X133800600Y-52534800D02*
X133800600Y-51934800D01*
X136350600Y-54009800D02*
X136350600Y-53459800D01*
X133800600Y-54009800D02*
X136350600Y-54009800D01*
X133800600Y-53459800D02*
X133800600Y-54009800D01*
%TO.C,D1*%
X122402000Y-58890000D02*
X122702000Y-58890000D01*
X122552000Y-59115000D02*
X122552000Y-58690000D01*
X125327000Y-58615000D02*
X125327000Y-59215000D01*
X122777000Y-58615000D02*
X125327000Y-58615000D01*
X122777000Y-59215000D02*
X122777000Y-58615000D01*
X125327000Y-60690000D02*
X125327000Y-60140000D01*
X122777000Y-60690000D02*
X125327000Y-60690000D01*
X122777000Y-60140000D02*
X122777000Y-60690000D01*
D12*
%TO.C,J1*%
X133130000Y-43570000D02*
X133130000Y-42970000D01*
X131530000Y-43570000D02*
X133130000Y-43570000D01*
X131530000Y-42970000D02*
X131530000Y-43570000D01*
X130590000Y-43570000D02*
X130590000Y-42970000D01*
X128990000Y-43570000D02*
X130590000Y-43570000D01*
X128990000Y-42970000D02*
X128990000Y-43570000D01*
X128050000Y-43570000D02*
X128050000Y-42970000D01*
X126450000Y-43570000D02*
X128050000Y-43570000D01*
X126450000Y-42970000D02*
X126450000Y-43570000D01*
X132080000Y-48990000D02*
X132080000Y-47990000D01*
X127500000Y-48990000D02*
X127500000Y-47990000D01*
X132080000Y-47460000D02*
X132330000Y-47990000D01*
X127500000Y-47460000D02*
X132080000Y-47460000D01*
X127250000Y-47990000D02*
X127500000Y-47460000D01*
X132330000Y-47990000D02*
X132330000Y-48990000D01*
X127250000Y-47990000D02*
X132330000Y-47990000D01*
X127250000Y-48990000D02*
X127250000Y-47990000D01*
X125580000Y-44000000D02*
X125580000Y-48000000D01*
X133710000Y-42970000D02*
X125870000Y-42970000D01*
X133710000Y-48990000D02*
X133710000Y-42970000D01*
X125870000Y-48990000D02*
X133710000Y-48990000D01*
X125870000Y-42970000D02*
X125870000Y-48990000D01*
%TO.C,R1*%
X132580000Y-70170000D02*
X132580000Y-69840000D01*
X126040000Y-70170000D02*
X132580000Y-70170000D01*
X126040000Y-69840000D02*
X126040000Y-70170000D01*
X132580000Y-67430000D02*
X132580000Y-67760000D01*
X126040000Y-67430000D02*
X132580000Y-67430000D01*
X126040000Y-67760000D02*
X126040000Y-67430000D01*
%TD*%
%TO.C,R2*%
D14*
X129133333Y-65852380D02*
X128800000Y-65376190D01*
X128561904Y-65852380D02*
X128561904Y-64852380D01*
X128942857Y-64852380D01*
X129038095Y-64900000D01*
X129085714Y-64947619D01*
X129133333Y-65042857D01*
X129133333Y-65185714D01*
X129085714Y-65280952D01*
X129038095Y-65328571D01*
X128942857Y-65376190D01*
X128561904Y-65376190D01*
X129514285Y-64947619D02*
X129561904Y-64900000D01*
X129657142Y-64852380D01*
X129895238Y-64852380D01*
X129990476Y-64900000D01*
X130038095Y-64947619D01*
X130085714Y-65042857D01*
X130085714Y-65138095D01*
X130038095Y-65280952D01*
X129466666Y-65852380D01*
X130085714Y-65852380D01*
%TO.C,D5*%
X121889780Y-53697095D02*
X120889780Y-53697095D01*
X120889780Y-53459000D01*
X120937400Y-53316142D01*
X121032638Y-53220904D01*
X121127876Y-53173285D01*
X121318352Y-53125666D01*
X121461209Y-53125666D01*
X121651685Y-53173285D01*
X121746923Y-53220904D01*
X121842161Y-53316142D01*
X121889780Y-53459000D01*
X121889780Y-53697095D01*
X120889780Y-52220904D02*
X120889780Y-52697095D01*
X121365971Y-52744714D01*
X121318352Y-52697095D01*
X121270733Y-52601857D01*
X121270733Y-52363761D01*
X121318352Y-52268523D01*
X121365971Y-52220904D01*
X121461209Y-52173285D01*
X121699304Y-52173285D01*
X121794542Y-52220904D01*
X121842161Y-52268523D01*
X121889780Y-52363761D01*
X121889780Y-52601857D01*
X121842161Y-52697095D01*
X121794542Y-52744714D01*
%TO.C,D6*%
X133040380Y-60275695D02*
X132040380Y-60275695D01*
X132040380Y-60037600D01*
X132088000Y-59894742D01*
X132183238Y-59799504D01*
X132278476Y-59751885D01*
X132468952Y-59704266D01*
X132611809Y-59704266D01*
X132802285Y-59751885D01*
X132897523Y-59799504D01*
X132992761Y-59894742D01*
X133040380Y-60037600D01*
X133040380Y-60275695D01*
X132040380Y-58847123D02*
X132040380Y-59037600D01*
X132088000Y-59132838D01*
X132135619Y-59180457D01*
X132278476Y-59275695D01*
X132468952Y-59323314D01*
X132849904Y-59323314D01*
X132945142Y-59275695D01*
X132992761Y-59228076D01*
X133040380Y-59132838D01*
X133040380Y-58942361D01*
X132992761Y-58847123D01*
X132945142Y-58799504D01*
X132849904Y-58751885D01*
X132611809Y-58751885D01*
X132516571Y-58799504D01*
X132468952Y-58847123D01*
X132421333Y-58942361D01*
X132421333Y-59132838D01*
X132468952Y-59228076D01*
X132516571Y-59275695D01*
X132611809Y-59323314D01*
%TO.C,D2*%
X133065780Y-53798695D02*
X132065780Y-53798695D01*
X132065780Y-53560600D01*
X132113400Y-53417742D01*
X132208638Y-53322504D01*
X132303876Y-53274885D01*
X132494352Y-53227266D01*
X132637209Y-53227266D01*
X132827685Y-53274885D01*
X132922923Y-53322504D01*
X133018161Y-53417742D01*
X133065780Y-53560600D01*
X133065780Y-53798695D01*
X132161019Y-52846314D02*
X132113400Y-52798695D01*
X132065780Y-52703457D01*
X132065780Y-52465361D01*
X132113400Y-52370123D01*
X132161019Y-52322504D01*
X132256257Y-52274885D01*
X132351495Y-52274885D01*
X132494352Y-52322504D01*
X133065780Y-52893933D01*
X133065780Y-52274885D01*
%TO.C,D1*%
X121889780Y-60326495D02*
X120889780Y-60326495D01*
X120889780Y-60088400D01*
X120937400Y-59945542D01*
X121032638Y-59850304D01*
X121127876Y-59802685D01*
X121318352Y-59755066D01*
X121461209Y-59755066D01*
X121651685Y-59802685D01*
X121746923Y-59850304D01*
X121842161Y-59945542D01*
X121889780Y-60088400D01*
X121889780Y-60326495D01*
X121889780Y-58802685D02*
X121889780Y-59374114D01*
X121889780Y-59088400D02*
X120889780Y-59088400D01*
X121032638Y-59183638D01*
X121127876Y-59278876D01*
X121175495Y-59374114D01*
%TO.C,J1*%
X123666666Y-45202380D02*
X123666666Y-45916666D01*
X123619047Y-46059523D01*
X123523809Y-46154761D01*
X123380952Y-46202380D01*
X123285714Y-46202380D01*
X124666666Y-46202380D02*
X124095238Y-46202380D01*
X124380952Y-46202380D02*
X124380952Y-45202380D01*
X124285714Y-45345238D01*
X124190476Y-45440476D01*
X124095238Y-45488095D01*
%TO.C,H4*%
X118488095Y-44149436D02*
X118488095Y-43149436D01*
X118488095Y-43625627D02*
X119059523Y-43625627D01*
X119059523Y-44149436D02*
X119059523Y-43149436D01*
X119964285Y-43482770D02*
X119964285Y-44149436D01*
X119726190Y-43101817D02*
X119488095Y-43816103D01*
X120107142Y-43816103D01*
%TO.C,R1*%
X129333333Y-69252380D02*
X129000000Y-68776190D01*
X128761904Y-69252380D02*
X128761904Y-68252380D01*
X129142857Y-68252380D01*
X129238095Y-68300000D01*
X129285714Y-68347619D01*
X129333333Y-68442857D01*
X129333333Y-68585714D01*
X129285714Y-68680952D01*
X129238095Y-68728571D01*
X129142857Y-68776190D01*
X128761904Y-68776190D01*
X130285714Y-69252380D02*
X129714285Y-69252380D01*
X130000000Y-69252380D02*
X130000000Y-68252380D01*
X129904761Y-68395238D01*
X129809523Y-68490476D01*
X129714285Y-68538095D01*
%TD*%
M02*
