%TF.GenerationSoftware,KiCad,Pcbnew,(5.1.9)-1*%
%TF.CreationDate,2021-09-01T20:21:50+01:00*%
%TF.ProjectId,TSAL LED breakout,5453414c-204c-4454-9420-627265616b6f,rev?*%
%TF.SameCoordinates,Original*%
%TF.FileFunction,Legend,Bot*%
%TF.FilePolarity,Positive*%
%FSLAX46Y46*%
G04 Gerber Fmt 4.6, Leading zero omitted, Abs format (unit mm)*
G04 Created by KiCad (PCBNEW (5.1.9)-1) date 2021-09-01 20:21:50*
%MOMM*%
%LPD*%
G01*
G04 APERTURE LIST*
%ADD10C,0.050000*%
%ADD11C,0.150000*%
G04 APERTURE END LIST*
D10*
%TO.C,D7*%
X122400000Y-53725000D02*
X122700000Y-53725000D01*
X122550000Y-53500000D02*
X122550000Y-53925000D01*
X125325000Y-54000000D02*
X125325000Y-53400000D01*
X122775000Y-54000000D02*
X125325000Y-54000000D01*
X122775000Y-53400000D02*
X122775000Y-54000000D01*
X125325000Y-51925000D02*
X125325000Y-52475000D01*
X122775000Y-51925000D02*
X125325000Y-51925000D01*
X122775000Y-52475000D02*
X122775000Y-51925000D01*
%TO.C,D8*%
X133400200Y-60413800D02*
X133700200Y-60413800D01*
X133550200Y-60188800D02*
X133550200Y-60613800D01*
X136325200Y-60688800D02*
X136325200Y-60088800D01*
X133775200Y-60688800D02*
X136325200Y-60688800D01*
X133775200Y-60088800D02*
X133775200Y-60688800D01*
X136325200Y-58613800D02*
X136325200Y-59163800D01*
X133775200Y-58613800D02*
X136325200Y-58613800D01*
X133775200Y-59163800D02*
X133775200Y-58613800D01*
%TO.C,D4*%
X133425600Y-53759000D02*
X133725600Y-53759000D01*
X133575600Y-53534000D02*
X133575600Y-53959000D01*
X136350600Y-54034000D02*
X136350600Y-53434000D01*
X133800600Y-54034000D02*
X136350600Y-54034000D01*
X133800600Y-53434000D02*
X133800600Y-54034000D01*
X136350600Y-51959000D02*
X136350600Y-52509000D01*
X133800600Y-51959000D02*
X136350600Y-51959000D01*
X133800600Y-52509000D02*
X133800600Y-51959000D01*
%TO.C,D3*%
X122402000Y-60439200D02*
X122702000Y-60439200D01*
X122552000Y-60214200D02*
X122552000Y-60639200D01*
X125327000Y-60714200D02*
X125327000Y-60114200D01*
X122777000Y-60714200D02*
X125327000Y-60714200D01*
X122777000Y-60114200D02*
X122777000Y-60714200D01*
X125327000Y-58639200D02*
X125327000Y-59189200D01*
X122777000Y-58639200D02*
X125327000Y-58639200D01*
X122777000Y-59189200D02*
X122777000Y-58639200D01*
%TD*%
%TO.C,D7*%
D11*
X122002380Y-52271704D02*
X121002380Y-52271704D01*
X121002380Y-52509800D01*
X121050000Y-52652657D01*
X121145238Y-52747895D01*
X121240476Y-52795514D01*
X121430952Y-52843133D01*
X121573809Y-52843133D01*
X121764285Y-52795514D01*
X121859523Y-52747895D01*
X121954761Y-52652657D01*
X122002380Y-52509800D01*
X122002380Y-52271704D01*
X121002380Y-53176466D02*
X121002380Y-53843133D01*
X122002380Y-53414561D01*
%TO.C,D8*%
X133065780Y-58799504D02*
X132065780Y-58799504D01*
X132065780Y-59037600D01*
X132113400Y-59180457D01*
X132208638Y-59275695D01*
X132303876Y-59323314D01*
X132494352Y-59370933D01*
X132637209Y-59370933D01*
X132827685Y-59323314D01*
X132922923Y-59275695D01*
X133018161Y-59180457D01*
X133065780Y-59037600D01*
X133065780Y-58799504D01*
X132494352Y-59942361D02*
X132446733Y-59847123D01*
X132399114Y-59799504D01*
X132303876Y-59751885D01*
X132256257Y-59751885D01*
X132161019Y-59799504D01*
X132113400Y-59847123D01*
X132065780Y-59942361D01*
X132065780Y-60132838D01*
X132113400Y-60228076D01*
X132161019Y-60275695D01*
X132256257Y-60323314D01*
X132303876Y-60323314D01*
X132399114Y-60275695D01*
X132446733Y-60228076D01*
X132494352Y-60132838D01*
X132494352Y-59942361D01*
X132541971Y-59847123D01*
X132589590Y-59799504D01*
X132684828Y-59751885D01*
X132875304Y-59751885D01*
X132970542Y-59799504D01*
X133018161Y-59847123D01*
X133065780Y-59942361D01*
X133065780Y-60132838D01*
X133018161Y-60228076D01*
X132970542Y-60275695D01*
X132875304Y-60323314D01*
X132684828Y-60323314D01*
X132589590Y-60275695D01*
X132541971Y-60228076D01*
X132494352Y-60132838D01*
%TO.C,D4*%
X133065780Y-52322504D02*
X132065780Y-52322504D01*
X132065780Y-52560600D01*
X132113400Y-52703457D01*
X132208638Y-52798695D01*
X132303876Y-52846314D01*
X132494352Y-52893933D01*
X132637209Y-52893933D01*
X132827685Y-52846314D01*
X132922923Y-52798695D01*
X133018161Y-52703457D01*
X133065780Y-52560600D01*
X133065780Y-52322504D01*
X132399114Y-53751076D02*
X133065780Y-53751076D01*
X132018161Y-53512980D02*
X132732447Y-53274885D01*
X132732447Y-53893933D01*
%TO.C,D3*%
X121915180Y-58926504D02*
X120915180Y-58926504D01*
X120915180Y-59164600D01*
X120962800Y-59307457D01*
X121058038Y-59402695D01*
X121153276Y-59450314D01*
X121343752Y-59497933D01*
X121486609Y-59497933D01*
X121677085Y-59450314D01*
X121772323Y-59402695D01*
X121867561Y-59307457D01*
X121915180Y-59164600D01*
X121915180Y-58926504D01*
X120915180Y-59831266D02*
X120915180Y-60450314D01*
X121296133Y-60116980D01*
X121296133Y-60259838D01*
X121343752Y-60355076D01*
X121391371Y-60402695D01*
X121486609Y-60450314D01*
X121724704Y-60450314D01*
X121819942Y-60402695D01*
X121867561Y-60355076D01*
X121915180Y-60259838D01*
X121915180Y-59974123D01*
X121867561Y-59878885D01*
X121819942Y-59831266D01*
%TD*%
M02*
