%TF.GenerationSoftware,KiCad,Pcbnew,(5.1.9)-1*%
%TF.CreationDate,2021-09-01T20:21:50+01:00*%
%TF.ProjectId,TSAL LED breakout,5453414c-204c-4454-9420-627265616b6f,rev?*%
%TF.SameCoordinates,Original*%
%TF.FileFunction,Copper,L1,Top*%
%TF.FilePolarity,Positive*%
%FSLAX46Y46*%
G04 Gerber Fmt 4.6, Leading zero omitted, Abs format (unit mm)*
G04 Created by KiCad (PCBNEW (5.1.9)-1) date 2021-09-01 20:21:50*
%MOMM*%
%LPD*%
G01*
G04 APERTURE LIST*
%TA.AperFunction,ComponentPad*%
%ADD10O,1.600000X1.600000*%
%TD*%
%TA.AperFunction,ComponentPad*%
%ADD11C,1.600000*%
%TD*%
%TA.AperFunction,SMDPad,CuDef*%
%ADD12C,0.100000*%
%TD*%
%TA.AperFunction,ComponentPad*%
%ADD13O,1.740000X2.190000*%
%TD*%
%TA.AperFunction,ComponentPad*%
%ADD14C,0.800000*%
%TD*%
%TA.AperFunction,ComponentPad*%
%ADD15C,6.400000*%
%TD*%
%TA.AperFunction,Conductor*%
%ADD16C,1.000000*%
%TD*%
%TA.AperFunction,Conductor*%
%ADD17C,0.500000*%
%TD*%
%TA.AperFunction,Conductor*%
%ADD18C,0.250000*%
%TD*%
%TA.AperFunction,Conductor*%
%ADD19C,0.400000*%
%TD*%
G04 APERTURE END LIST*
D10*
%TO.P,R2,2*%
%TO.N,Net-(D5-Pad1)*%
X133120000Y-65400000D03*
D11*
%TO.P,R2,1*%
%TO.N,Path_Green*%
X125500000Y-65400000D03*
%TD*%
%TA.AperFunction,SMDPad,CuDef*%
D12*
%TO.P,D5,2*%
%TO.N,+3V3*%
G36*
X123095000Y-52575000D02*
G01*
X123095000Y-52125000D01*
X123425000Y-52125000D01*
X123425000Y-53825000D01*
X123095000Y-53825000D01*
X123095000Y-53375000D01*
X122525000Y-53375000D01*
X122525000Y-52575000D01*
X123095000Y-52575000D01*
G37*
%TD.AperFunction*%
%TA.AperFunction,SMDPad,CuDef*%
%TO.P,D5,1*%
%TO.N,Net-(D5-Pad1)*%
G36*
X124905000Y-52125000D02*
G01*
X124905000Y-52575000D01*
X125475000Y-52575000D01*
X125475000Y-53375000D01*
X124905000Y-53375000D01*
X124905000Y-53825000D01*
X123675000Y-53825000D01*
X123675000Y-52125000D01*
X124905000Y-52125000D01*
G37*
%TD.AperFunction*%
%TD*%
%TA.AperFunction,SMDPad,CuDef*%
%TO.P,D6,2*%
%TO.N,+3V3*%
G36*
X134095200Y-59239200D02*
G01*
X134095200Y-58789200D01*
X134425200Y-58789200D01*
X134425200Y-60489200D01*
X134095200Y-60489200D01*
X134095200Y-60039200D01*
X133525200Y-60039200D01*
X133525200Y-59239200D01*
X134095200Y-59239200D01*
G37*
%TD.AperFunction*%
%TA.AperFunction,SMDPad,CuDef*%
%TO.P,D6,1*%
%TO.N,Net-(D5-Pad1)*%
G36*
X135905200Y-58789200D02*
G01*
X135905200Y-59239200D01*
X136475200Y-59239200D01*
X136475200Y-60039200D01*
X135905200Y-60039200D01*
X135905200Y-60489200D01*
X134675200Y-60489200D01*
X134675200Y-58789200D01*
X135905200Y-58789200D01*
G37*
%TD.AperFunction*%
%TD*%
%TA.AperFunction,SMDPad,CuDef*%
%TO.P,D2,2*%
%TO.N,+3V3*%
G36*
X134120600Y-52584800D02*
G01*
X134120600Y-52134800D01*
X134450600Y-52134800D01*
X134450600Y-53834800D01*
X134120600Y-53834800D01*
X134120600Y-53384800D01*
X133550600Y-53384800D01*
X133550600Y-52584800D01*
X134120600Y-52584800D01*
G37*
%TD.AperFunction*%
%TA.AperFunction,SMDPad,CuDef*%
%TO.P,D2,1*%
%TO.N,Net-(D1-Pad1)*%
G36*
X135930600Y-52134800D02*
G01*
X135930600Y-52584800D01*
X136500600Y-52584800D01*
X136500600Y-53384800D01*
X135930600Y-53384800D01*
X135930600Y-53834800D01*
X134700600Y-53834800D01*
X134700600Y-52134800D01*
X135930600Y-52134800D01*
G37*
%TD.AperFunction*%
%TD*%
%TA.AperFunction,SMDPad,CuDef*%
%TO.P,D1,2*%
%TO.N,+3V3*%
G36*
X123097000Y-59265000D02*
G01*
X123097000Y-58815000D01*
X123427000Y-58815000D01*
X123427000Y-60515000D01*
X123097000Y-60515000D01*
X123097000Y-60065000D01*
X122527000Y-60065000D01*
X122527000Y-59265000D01*
X123097000Y-59265000D01*
G37*
%TD.AperFunction*%
%TA.AperFunction,SMDPad,CuDef*%
%TO.P,D1,1*%
%TO.N,Net-(D1-Pad1)*%
G36*
X124907000Y-58815000D02*
G01*
X124907000Y-59265000D01*
X125477000Y-59265000D01*
X125477000Y-60065000D01*
X124907000Y-60065000D01*
X124907000Y-60515000D01*
X123677000Y-60515000D01*
X123677000Y-58815000D01*
X124907000Y-58815000D01*
G37*
%TD.AperFunction*%
%TD*%
D13*
%TO.P,J1,3*%
%TO.N,Path_Green*%
X132330000Y-46000000D03*
%TO.P,J1,2*%
%TO.N,Path_Red*%
X129790000Y-46000000D03*
%TO.P,J1,1*%
%TO.N,+3V3*%
%TA.AperFunction,ComponentPad*%
G36*
G01*
X126380000Y-46845001D02*
X126380000Y-45154999D01*
G75*
G02*
X126629999Y-44905000I249999J0D01*
G01*
X127870001Y-44905000D01*
G75*
G02*
X128120000Y-45154999I0J-249999D01*
G01*
X128120000Y-46845001D01*
G75*
G02*
X127870001Y-47095000I-249999J0D01*
G01*
X126629999Y-47095000D01*
G75*
G02*
X126380000Y-46845001I0J249999D01*
G01*
G37*
%TD.AperFunction*%
%TD*%
D14*
%TO.P,H2,1*%
%TO.N,Net-(H2-Pad1)*%
X141447056Y-65802944D03*
X139750000Y-65100000D03*
X138052944Y-65802944D03*
X137350000Y-67500000D03*
X138052944Y-69197056D03*
X139750000Y-69900000D03*
X141447056Y-69197056D03*
X142150000Y-67500000D03*
D15*
X139750000Y-67500000D03*
%TD*%
%TO.P,H1,1*%
%TO.N,Net-(H1-Pad1)*%
X139750000Y-45500000D03*
D14*
X142150000Y-45500000D03*
X141447056Y-47197056D03*
X139750000Y-47900000D03*
X138052944Y-47197056D03*
X137350000Y-45500000D03*
X138052944Y-43802944D03*
X139750000Y-43100000D03*
X141447056Y-43802944D03*
%TD*%
D15*
%TO.P,H3,1*%
%TO.N,Net-(H3-Pad1)*%
X119250000Y-67697000D03*
D14*
X121650000Y-67697000D03*
X120947056Y-69394056D03*
X119250000Y-70097000D03*
X117552944Y-69394056D03*
X116850000Y-67697000D03*
X117552944Y-65999944D03*
X119250000Y-65297000D03*
X120947056Y-65999944D03*
%TD*%
%TO.P,H4,1*%
%TO.N,Net-(H4-Pad1)*%
X120947056Y-44000000D03*
X119250000Y-43297056D03*
X117552944Y-44000000D03*
X116850000Y-45697056D03*
X117552944Y-47394112D03*
X119250000Y-48097056D03*
X120947056Y-47394112D03*
X121650000Y-45697056D03*
D15*
X119250000Y-45697056D03*
%TD*%
D11*
%TO.P,R1,1*%
%TO.N,Path_Red*%
X125500000Y-68800000D03*
D10*
%TO.P,R1,2*%
%TO.N,Net-(D1-Pad1)*%
X133120000Y-68800000D03*
%TD*%
D16*
%TO.N,Net-(D1-Pad1)*%
X131300000Y-66980000D02*
X133120000Y-68800000D01*
X131300000Y-61700000D02*
X131300000Y-66980000D01*
X129288000Y-59688000D02*
X131300000Y-61700000D01*
D17*
X129275000Y-59675000D02*
X129288000Y-59688000D01*
D16*
X129275000Y-59675000D02*
X124445000Y-59675000D01*
X137175210Y-61533720D02*
X135050002Y-63658928D01*
X137175210Y-54559410D02*
X137175210Y-61533720D01*
X135600600Y-52984800D02*
X137175210Y-54559410D01*
X135050002Y-65105705D02*
X134645400Y-65510307D01*
X135050002Y-63658928D02*
X135050002Y-65105705D01*
X134264400Y-67716400D02*
X133223000Y-68757800D01*
X134645400Y-67335400D02*
X134264400Y-67716400D01*
X134645400Y-65510307D02*
X134645400Y-67335400D01*
D17*
%TO.N,+3V3*%
X133426600Y-52984800D02*
X133426600Y-59284000D01*
D18*
X134250600Y-52984800D02*
X133426600Y-52984800D01*
D17*
X133426600Y-59284000D02*
X133832600Y-59690000D01*
X133426600Y-52984800D02*
X133756000Y-52984800D01*
X124184600Y-49780000D02*
X122961400Y-51003200D01*
X122961400Y-51003200D02*
X122961400Y-52755800D01*
X127250000Y-49780000D02*
X124184600Y-49780000D01*
X127250000Y-49780000D02*
X127250000Y-46097000D01*
X133426600Y-52984800D02*
X130684800Y-52984800D01*
X130684800Y-52984800D02*
X127250000Y-49550000D01*
D19*
X122199400Y-54000600D02*
X122199400Y-57607200D01*
X122301000Y-58750200D02*
X123215400Y-59664600D01*
X122199400Y-57607200D02*
X122199400Y-58750200D01*
X122199400Y-58750200D02*
X122301000Y-58750200D01*
X123225000Y-52975000D02*
X122199400Y-54000600D01*
D16*
%TO.N,Net-(D5-Pad1)*%
X124575000Y-52975000D02*
X124575000Y-54725000D01*
D18*
X133223000Y-65354200D02*
X133172200Y-65405000D01*
X133870700Y-62064900D02*
X133731000Y-62204600D01*
D16*
X127914400Y-58064400D02*
X129870200Y-58064400D01*
X129870200Y-58064400D02*
X133870700Y-62064900D01*
X124575000Y-54725000D02*
X127914400Y-58064400D01*
X135575200Y-60360400D02*
X133870700Y-62064900D01*
X135575200Y-59639200D02*
X135575200Y-60360400D01*
X133731000Y-62204600D02*
X133731000Y-62966600D01*
X133731000Y-62966600D02*
X133096000Y-63601600D01*
X133096000Y-63601600D02*
X133096000Y-65328800D01*
%TO.N,Path_Red*%
X129790000Y-46000000D02*
X129790000Y-44490000D01*
X129790000Y-44490000D02*
X129100000Y-43800000D01*
X129100000Y-43800000D02*
X125800000Y-43800000D01*
X125800000Y-43800000D02*
X123700000Y-45900000D01*
X123700000Y-45900000D02*
X123700000Y-48500000D01*
X122400011Y-49799989D02*
X120500011Y-49799989D01*
X123700000Y-48500000D02*
X122400011Y-49799989D01*
X120500011Y-49799989D02*
X119200000Y-51100000D01*
X119200000Y-51100000D02*
X119200000Y-61600000D01*
X119200000Y-61600000D02*
X121600000Y-64000000D01*
X121600000Y-64000000D02*
X122200000Y-64000000D01*
X122200000Y-64000000D02*
X124000000Y-65800000D01*
X124000000Y-65800000D02*
X124000000Y-68300000D01*
X124500000Y-68800000D02*
X125900000Y-68800000D01*
X124000000Y-68300000D02*
X124500000Y-68800000D01*
%TO.N,Path_Green*%
X132330000Y-46000000D02*
X132330000Y-47494000D01*
X132330000Y-47494000D02*
X134404002Y-47494000D01*
X138050001Y-51139999D02*
X138050001Y-51182001D01*
X134404002Y-47494000D02*
X138050001Y-51139999D01*
X138050001Y-51182001D02*
X138430000Y-51562000D01*
X138430000Y-61976000D02*
X136250011Y-64155989D01*
X138430000Y-51562000D02*
X138430000Y-61976000D01*
X135875020Y-68340980D02*
X133604000Y-70612000D01*
X133604000Y-70612000D02*
X130556000Y-70612000D01*
X130556000Y-70612000D02*
X130302000Y-70358000D01*
X130556000Y-70612000D02*
X125730000Y-65786000D01*
X125730000Y-65786000D02*
X125476000Y-65532000D01*
X125476000Y-65532000D02*
X125476000Y-65278000D01*
D17*
X136250011Y-64155989D02*
X136250011Y-64225213D01*
X135875020Y-65800980D02*
X135875020Y-65624204D01*
D16*
X136250011Y-65602766D02*
X136051797Y-65800980D01*
X136250011Y-64155989D02*
X136250011Y-65602766D01*
X135845410Y-68311370D02*
X135875020Y-68340980D01*
X135845410Y-66008390D02*
X135845410Y-68311370D01*
X136250011Y-65603789D02*
X135845410Y-66008390D01*
X136250011Y-65602766D02*
X136250011Y-65603789D01*
%TD*%
M02*
