%TF.GenerationSoftware,KiCad,Pcbnew,(5.1.9)-1*%
%TF.CreationDate,2021-09-01T20:21:50+01:00*%
%TF.ProjectId,TSAL LED breakout,5453414c-204c-4454-9420-627265616b6f,rev?*%
%TF.SameCoordinates,Original*%
%TF.FileFunction,Copper,L2,Bot*%
%TF.FilePolarity,Positive*%
%FSLAX46Y46*%
G04 Gerber Fmt 4.6, Leading zero omitted, Abs format (unit mm)*
G04 Created by KiCad (PCBNEW (5.1.9)-1) date 2021-09-01 20:21:50*
%MOMM*%
%LPD*%
G01*
G04 APERTURE LIST*
%TA.AperFunction,ComponentPad*%
%ADD10O,1.600000X1.600000*%
%TD*%
%TA.AperFunction,ComponentPad*%
%ADD11C,1.600000*%
%TD*%
%TA.AperFunction,SMDPad,CuDef*%
%ADD12C,0.100000*%
%TD*%
%TA.AperFunction,ComponentPad*%
%ADD13O,1.740000X2.190000*%
%TD*%
%TA.AperFunction,ComponentPad*%
%ADD14C,0.800000*%
%TD*%
%TA.AperFunction,ComponentPad*%
%ADD15C,6.400000*%
%TD*%
%TA.AperFunction,Conductor*%
%ADD16C,1.000000*%
%TD*%
%TA.AperFunction,Conductor*%
%ADD17C,0.250000*%
%TD*%
%TA.AperFunction,Conductor*%
%ADD18C,0.500000*%
%TD*%
%TA.AperFunction,Conductor*%
%ADD19C,0.400000*%
%TD*%
G04 APERTURE END LIST*
D10*
%TO.P,R2,2*%
%TO.N,Net-(D5-Pad1)*%
X133120000Y-65400000D03*
D11*
%TO.P,R2,1*%
%TO.N,Path_Green*%
X125500000Y-65400000D03*
%TD*%
%TA.AperFunction,SMDPad,CuDef*%
D12*
%TO.P,D7,2*%
%TO.N,+3V3*%
G36*
X123095000Y-53800000D02*
G01*
X123095000Y-53350000D01*
X122525000Y-53350000D01*
X122525000Y-52550000D01*
X123095000Y-52550000D01*
X123095000Y-52100000D01*
X123425000Y-52100000D01*
X123425000Y-53800000D01*
X123095000Y-53800000D01*
G37*
%TD.AperFunction*%
%TA.AperFunction,SMDPad,CuDef*%
%TO.P,D7,1*%
%TO.N,Net-(D5-Pad1)*%
G36*
X124905000Y-53350000D02*
G01*
X124905000Y-53800000D01*
X123675000Y-53800000D01*
X123675000Y-52100000D01*
X124905000Y-52100000D01*
X124905000Y-52550000D01*
X125475000Y-52550000D01*
X125475000Y-53350000D01*
X124905000Y-53350000D01*
G37*
%TD.AperFunction*%
%TD*%
%TA.AperFunction,SMDPad,CuDef*%
%TO.P,D8,2*%
%TO.N,+3V3*%
G36*
X134095200Y-60488800D02*
G01*
X134095200Y-60038800D01*
X133525200Y-60038800D01*
X133525200Y-59238800D01*
X134095200Y-59238800D01*
X134095200Y-58788800D01*
X134425200Y-58788800D01*
X134425200Y-60488800D01*
X134095200Y-60488800D01*
G37*
%TD.AperFunction*%
%TA.AperFunction,SMDPad,CuDef*%
%TO.P,D8,1*%
%TO.N,Net-(D5-Pad1)*%
G36*
X135905200Y-60038800D02*
G01*
X135905200Y-60488800D01*
X134675200Y-60488800D01*
X134675200Y-58788800D01*
X135905200Y-58788800D01*
X135905200Y-59238800D01*
X136475200Y-59238800D01*
X136475200Y-60038800D01*
X135905200Y-60038800D01*
G37*
%TD.AperFunction*%
%TD*%
%TA.AperFunction,SMDPad,CuDef*%
%TO.P,D4,2*%
%TO.N,+3V3*%
G36*
X134120600Y-53834000D02*
G01*
X134120600Y-53384000D01*
X133550600Y-53384000D01*
X133550600Y-52584000D01*
X134120600Y-52584000D01*
X134120600Y-52134000D01*
X134450600Y-52134000D01*
X134450600Y-53834000D01*
X134120600Y-53834000D01*
G37*
%TD.AperFunction*%
%TA.AperFunction,SMDPad,CuDef*%
%TO.P,D4,1*%
%TO.N,Net-(D1-Pad1)*%
G36*
X135930600Y-53384000D02*
G01*
X135930600Y-53834000D01*
X134700600Y-53834000D01*
X134700600Y-52134000D01*
X135930600Y-52134000D01*
X135930600Y-52584000D01*
X136500600Y-52584000D01*
X136500600Y-53384000D01*
X135930600Y-53384000D01*
G37*
%TD.AperFunction*%
%TD*%
%TA.AperFunction,SMDPad,CuDef*%
%TO.P,D3,2*%
%TO.N,+3V3*%
G36*
X123097000Y-60514200D02*
G01*
X123097000Y-60064200D01*
X122527000Y-60064200D01*
X122527000Y-59264200D01*
X123097000Y-59264200D01*
X123097000Y-58814200D01*
X123427000Y-58814200D01*
X123427000Y-60514200D01*
X123097000Y-60514200D01*
G37*
%TD.AperFunction*%
%TA.AperFunction,SMDPad,CuDef*%
%TO.P,D3,1*%
%TO.N,Net-(D1-Pad1)*%
G36*
X124907000Y-60064200D02*
G01*
X124907000Y-60514200D01*
X123677000Y-60514200D01*
X123677000Y-58814200D01*
X124907000Y-58814200D01*
X124907000Y-59264200D01*
X125477000Y-59264200D01*
X125477000Y-60064200D01*
X124907000Y-60064200D01*
G37*
%TD.AperFunction*%
%TD*%
D13*
%TO.P,J1,3*%
%TO.N,Path_Green*%
X132330000Y-46000000D03*
%TO.P,J1,2*%
%TO.N,Path_Red*%
X129790000Y-46000000D03*
%TO.P,J1,1*%
%TO.N,+3V3*%
%TA.AperFunction,ComponentPad*%
G36*
G01*
X126380000Y-46845001D02*
X126380000Y-45154999D01*
G75*
G02*
X126629999Y-44905000I249999J0D01*
G01*
X127870001Y-44905000D01*
G75*
G02*
X128120000Y-45154999I0J-249999D01*
G01*
X128120000Y-46845001D01*
G75*
G02*
X127870001Y-47095000I-249999J0D01*
G01*
X126629999Y-47095000D01*
G75*
G02*
X126380000Y-46845001I0J249999D01*
G01*
G37*
%TD.AperFunction*%
%TD*%
D14*
%TO.P,H2,1*%
%TO.N,Net-(H2-Pad1)*%
X141447056Y-65802944D03*
X139750000Y-65100000D03*
X138052944Y-65802944D03*
X137350000Y-67500000D03*
X138052944Y-69197056D03*
X139750000Y-69900000D03*
X141447056Y-69197056D03*
X142150000Y-67500000D03*
D15*
X139750000Y-67500000D03*
%TD*%
%TO.P,H1,1*%
%TO.N,Net-(H1-Pad1)*%
X139750000Y-45500000D03*
D14*
X142150000Y-45500000D03*
X141447056Y-47197056D03*
X139750000Y-47900000D03*
X138052944Y-47197056D03*
X137350000Y-45500000D03*
X138052944Y-43802944D03*
X139750000Y-43100000D03*
X141447056Y-43802944D03*
%TD*%
D15*
%TO.P,H3,1*%
%TO.N,Net-(H3-Pad1)*%
X119250000Y-67697000D03*
D14*
X121650000Y-67697000D03*
X120947056Y-69394056D03*
X119250000Y-70097000D03*
X117552944Y-69394056D03*
X116850000Y-67697000D03*
X117552944Y-65999944D03*
X119250000Y-65297000D03*
X120947056Y-65999944D03*
%TD*%
%TO.P,H4,1*%
%TO.N,Net-(H4-Pad1)*%
X120947056Y-44000000D03*
X119250000Y-43297056D03*
X117552944Y-44000000D03*
X116850000Y-45697056D03*
X117552944Y-47394112D03*
X119250000Y-48097056D03*
X120947056Y-47394112D03*
X121650000Y-45697056D03*
D15*
X119250000Y-45697056D03*
%TD*%
D11*
%TO.P,R1,1*%
%TO.N,Path_Red*%
X125500000Y-68800000D03*
D10*
%TO.P,R1,2*%
%TO.N,Net-(D1-Pad1)*%
X133120000Y-68800000D03*
%TD*%
D16*
%TO.N,Net-(D1-Pad1)*%
X135600600Y-52984000D02*
X137109200Y-54492600D01*
X124577000Y-59664200D02*
X125780400Y-59664200D01*
X125780400Y-59664200D02*
X129133600Y-63017400D01*
X129133600Y-63017400D02*
X129133600Y-66497200D01*
X129133600Y-66497200D02*
X131394200Y-68757800D01*
X131394200Y-68757800D02*
X133096000Y-68757800D01*
X137175210Y-58948844D02*
X137175210Y-63124460D01*
X137109200Y-58882834D02*
X137175210Y-58948844D01*
X137109200Y-54492600D02*
X137109200Y-58882834D01*
X134620001Y-65679669D02*
X134620001Y-67386199D01*
X137175210Y-63124460D02*
X134620001Y-65679669D01*
X134620001Y-67386199D02*
X133146800Y-68859400D01*
D17*
%TO.N,+3V3*%
X123225000Y-52950000D02*
X122952400Y-52950000D01*
X122952400Y-52950000D02*
X123012200Y-52890200D01*
D18*
X134225200Y-59638800D02*
X133781400Y-59638800D01*
X133781400Y-59638800D02*
X133146800Y-59004200D01*
X133146800Y-59004200D02*
X133146800Y-53721000D01*
X133146800Y-53721000D02*
X133883400Y-52984400D01*
X134250600Y-52984000D02*
X130708000Y-52984000D01*
X130708000Y-52984000D02*
X127431800Y-49707800D01*
X127431800Y-46278800D02*
X127177800Y-46024800D01*
X127431800Y-49631600D02*
X127431800Y-46278800D01*
X127431800Y-49707800D02*
X127431800Y-49631600D01*
D19*
X123225000Y-52950000D02*
X122732800Y-52457800D01*
X122732800Y-52457800D02*
X122732800Y-50876200D01*
X122732800Y-50876200D02*
X123875800Y-49733200D01*
X127406400Y-49733200D02*
X127431800Y-49707800D01*
X123875800Y-49733200D02*
X127406400Y-49733200D01*
X123227000Y-59664200D02*
X122275600Y-58712800D01*
X122275600Y-58712800D02*
X122275600Y-53898800D01*
X122275600Y-53898800D02*
X123063000Y-53111400D01*
X123063000Y-53111400D02*
X123063000Y-53009800D01*
D18*
%TO.N,Net-(D5-Pad1)*%
X133070600Y-65532000D02*
X133172200Y-65430400D01*
X133172200Y-65430400D02*
X133172200Y-65379600D01*
D16*
X133070600Y-63474600D02*
X133070600Y-65252600D01*
X124575000Y-52950000D02*
X126279800Y-52950000D01*
X126279800Y-52950000D02*
X128727200Y-55397400D01*
X128727200Y-59131200D02*
X133070600Y-63474600D01*
X128727200Y-55397400D02*
X128727200Y-59131200D01*
X135575200Y-59638800D02*
X135575200Y-63027400D01*
X135575200Y-63027400D02*
X133223000Y-65379600D01*
%TO.N,Path_Red*%
X125500000Y-68800000D02*
X124756200Y-68800000D01*
%TD*%
M02*
