M48
; DRILL file {KiCad (5.1.9)-1} date 09/01/21 20:22:24
; FORMAT={-:-/ absolute / inch / decimal}
; #@! TF.CreationDate,2021-09-01T20:22:24+01:00
; #@! TF.GenerationSoftware,Kicad,Pcbnew,(5.1.9)-1
FMAT,2
INCH
T1C0.0197
T2C0.0315
T3C0.0469
T4C0.1260
%
G90
G05
T1
X4.6004Y-1.7991
X4.6004Y-2.6652
X4.6281Y-1.7323
X4.6281Y-1.8659
X4.6281Y-2.5984
X4.6281Y-2.732
X4.6949Y-1.7046
X4.6949Y-1.8936
X4.6949Y-2.5707
X4.6949Y-2.7597
X4.7617Y-1.7323
X4.7617Y-1.8659
X4.7617Y-2.5984
X4.7617Y-2.732
X4.7894Y-1.7991
X4.7894Y-2.6652
X5.4075Y-1.7913
X5.4075Y-2.6575
X5.4352Y-1.7245
X5.4352Y-1.8582
X5.4352Y-2.5907
X5.4352Y-2.7243
X5.502Y-1.6969
X5.502Y-1.8858
X5.502Y-2.563
X5.502Y-2.752
X5.5688Y-1.7245
X5.5688Y-1.8582
X5.5688Y-2.5907
X5.5688Y-2.7243
X5.5965Y-1.7913
X5.5965Y-2.6575
T2
X4.9409Y-2.5748
X4.9409Y-2.7087
X5.2409Y-2.5748
X5.2409Y-2.7087
T3
X5.0098Y-1.811
X5.1098Y-1.811
X5.2098Y-1.811
T4
X4.6949Y-1.7991
X4.6949Y-2.6652
X5.502Y-1.7913
X5.502Y-2.6575
T0
M30
